<svg width="280" height="125" viewBox="0 0 280 125" fill="none" xmlns="http://www.w3.org/2000/svg">
<path d="M109.4 -4.76837e-06C110.667 1.26666 111.3 2.9 111.3 4.9C111.3 6.56666 110.933 8.26666 110.2 10L92.3 46.3V70H84V48.5L64 -4.76837e-06H72.5L91.6 45.1L109 10C109.733 8.33333 110.1 6.6 110.1 4.8C110.1 3 109.6 1.6 108.6 0.599999L109.4 -4.76837e-06ZM121.32 0.799997C129.054 0.266662 135.854 -4.76837e-06 141.72 -4.76837e-06C158.254 -4.76837e-06 166.52 5.83333 166.52 17.5C166.52 22.9 165.12 27.6333 162.32 31.7C160.854 33.9 158.587 35.6667 155.52 37C152.454 38.2667 148.754 38.9 144.42 38.9H129.62V70H121.32V0.799997ZM141.82 0.999994C137.954 0.999994 133.887 1.23333 129.62 1.7V37.9H144.42C153.82 37.5 158.52 30.7667 158.52 17.7C158.52 12.3667 157.12 8.26666 154.32 5.4C151.52 2.46666 147.354 0.999994 141.82 0.999994ZM214.594 70H176.594V-4.76837e-06H184.894V69H214.594V70Z" fill="black"/>
<path d="M5.95 124.6C4.72733 124.6 3.822 124.306 3.234 123.718C2.65533 123.13 2.366 122.215 2.366 120.974C2.366 120.489 2.60867 120.246 3.094 120.246C3.58867 120.246 3.836 120.489 3.836 120.974C3.836 121.814 3.98533 122.383 4.284 122.682C4.58267 122.981 5.138 123.13 5.95 123.13H10.794C11.6153 123.13 12.1753 122.981 12.474 122.682C12.7727 122.383 12.922 121.814 12.922 120.974V117.124C12.39 117.824 11.7227 118.314 10.92 118.594C10.1173 118.874 9.17933 119.014 8.106 119.014H7.322C5.60467 119.014 4.34933 118.617 3.556 117.824C2.76267 117.031 2.366 115.785 2.366 114.086V106.484C2.366 105.989 2.60867 105.742 3.094 105.742C3.58867 105.742 3.836 105.989 3.836 106.484V114.086C3.836 115.383 4.088 116.284 4.592 116.788C5.10533 117.292 6.01533 117.544 7.322 117.544H8.106C9.73933 117.544 10.948 117.259 11.732 116.69C12.5253 116.111 12.922 115.243 12.922 114.086V106.484C12.922 105.989 13.1647 105.742 13.65 105.742C14.1447 105.742 14.392 105.989 14.392 106.484V120.974C14.392 122.215 14.098 123.13 13.51 123.718C12.9313 124.306 12.026 124.6 10.794 124.6H5.95ZM24.3018 119C22.5565 119 21.2778 118.599 20.4658 117.796C19.6538 116.984 19.2478 115.71 19.2478 113.974V110.81C19.2478 109.046 19.6538 107.763 20.4658 106.96C21.2778 106.148 22.5565 105.751 24.3018 105.77H26.5978C28.3431 105.77 29.6171 106.176 30.4198 106.988C31.2318 107.791 31.6378 109.065 31.6378 110.81V113.946C31.6378 115.691 31.2318 116.97 30.4198 117.782C29.6171 118.594 28.3431 119 26.5978 119H24.3018ZM20.7178 113.974C20.7178 115.29 20.9791 116.214 21.5018 116.746C22.0338 117.269 22.9671 117.53 24.3018 117.53H26.5978C27.9325 117.53 28.8611 117.269 29.3838 116.746C29.9065 116.214 30.1678 115.281 30.1678 113.946V110.81C30.1678 109.475 29.9065 108.547 29.3838 108.024C28.8611 107.501 27.9325 107.24 26.5978 107.24H24.3018C23.4058 107.231 22.6965 107.338 22.1738 107.562C21.6511 107.786 21.2778 108.159 21.0538 108.682C20.8298 109.205 20.7178 109.914 20.7178 110.81V113.974ZM47.6129 105.77C48.1076 105.77 48.3549 106.013 48.3549 106.498V118.258C48.3549 118.753 48.1076 119 47.6129 119C47.1276 119 46.8849 118.753 46.8849 118.258V116.928C45.9982 118.309 44.3929 119 42.0689 119H41.2849C39.5396 119 38.2609 118.594 37.4489 117.782C36.6462 116.97 36.2449 115.691 36.2449 113.946V106.498C36.2449 106.013 36.4876 105.77 36.9729 105.77C37.4676 105.77 37.7149 106.013 37.7149 106.498V113.946C37.7149 115.281 37.9762 116.214 38.4989 116.746C39.0309 117.269 39.9596 117.53 41.2849 117.53H42.0689C43.5156 117.53 44.6542 117.297 45.4849 116.83C46.3156 116.363 46.7822 115.649 46.8849 114.688V106.498C46.8849 106.013 47.1276 105.77 47.6129 105.77ZM54.3288 119C53.8341 119 53.5868 118.753 53.5868 118.258V106.498C53.5868 106.013 53.8341 105.77 54.3288 105.77C54.8141 105.77 55.0568 106.013 55.0568 106.498V108.654C55.5421 107.721 56.2421 107.007 57.1568 106.512C58.0808 106.017 59.1728 105.77 60.4328 105.77C60.9274 105.77 61.1748 106.013 61.1748 106.498C61.1748 106.993 60.9274 107.24 60.4328 107.24C58.7714 107.24 57.4834 107.618 56.5688 108.374C55.6541 109.121 55.1501 110.189 55.0568 111.58V118.258C55.0568 118.753 54.8141 119 54.3288 119ZM71.9108 124.6C71.4161 124.6 71.1688 124.353 71.1688 123.858V106.498C71.1688 106.013 71.4161 105.77 71.9108 105.77C72.3961 105.77 72.6388 106.013 72.6388 106.498V107.744C73.0588 107.091 73.6608 106.601 74.4448 106.274C75.2288 105.938 76.2321 105.77 77.4548 105.77H78.5188C80.2641 105.77 81.5381 106.176 82.3408 106.988C83.1528 107.791 83.5588 109.065 83.5588 110.81V113.946C83.5588 115.691 83.1528 116.97 82.3408 117.782C81.5381 118.594 80.2641 119 78.5188 119H72.6388V123.858C72.6388 124.353 72.3961 124.6 71.9108 124.6ZM72.6388 117.53H78.5188C79.8534 117.53 80.7821 117.269 81.3048 116.746C81.8274 116.214 82.0888 115.281 82.0888 113.946V110.81C82.0888 109.475 81.8274 108.547 81.3048 108.024C80.7821 107.501 79.8534 107.24 78.5188 107.24H77.4548C75.9614 107.24 74.8134 107.473 74.0108 107.94C73.2174 108.407 72.7601 109.125 72.6388 110.096V117.53ZM89.5147 112.952V113.974C89.5147 115.29 89.776 116.214 90.2987 116.746C90.8307 117.269 91.764 117.53 93.0987 117.53H95.3947C96.5707 117.53 97.4247 117.381 97.9567 117.082C98.498 116.774 98.82 116.247 98.9227 115.5C98.96 115.267 99.0347 115.089 99.1467 114.968C99.268 114.847 99.45 114.786 99.6927 114.786C99.9354 114.786 100.117 114.856 100.239 114.996C100.369 115.127 100.421 115.313 100.393 115.556C100.271 116.732 99.8 117.6 98.9787 118.16C98.1574 118.72 96.9627 119 95.3947 119H93.0987C91.3534 119 90.0747 118.599 89.2627 117.796C88.4507 116.984 88.0447 115.71 88.0447 113.974V110.81C88.0447 109.046 88.4507 107.763 89.2627 106.96C90.0747 106.148 91.3534 105.751 93.0987 105.77H95.3947C97.14 105.77 98.414 106.176 99.2167 106.988C100.029 107.791 100.435 109.065 100.435 110.81V112.21C100.435 112.705 100.192 112.952 99.7067 112.952H89.5147ZM93.0987 107.24C91.764 107.221 90.8307 107.478 90.2987 108.01C89.776 108.533 89.5147 109.466 89.5147 110.81V111.482H98.9647V110.81C98.9647 109.475 98.7034 108.547 98.1807 108.024C97.658 107.501 96.7294 107.24 95.3947 107.24H93.0987ZM106.036 119C105.541 119 105.294 118.753 105.294 118.258V106.498C105.294 106.013 105.541 105.77 106.036 105.77C106.521 105.77 106.764 106.013 106.764 106.498V108.654C107.249 107.721 107.949 107.007 108.864 106.512C109.788 106.017 110.88 105.77 112.14 105.77C112.634 105.77 112.882 106.013 112.882 106.498C112.882 106.993 112.634 107.24 112.14 107.24C110.478 107.24 109.19 107.618 108.276 108.374C107.361 109.121 106.857 110.189 106.764 111.58V118.258C106.764 118.753 106.521 119 106.036 119ZM118.2 118.972C117.052 118.972 116.174 118.729 115.568 118.244C114.961 117.749 114.597 116.998 114.476 115.99C114.448 115.747 114.499 115.561 114.63 115.43C114.76 115.29 114.952 115.22 115.204 115.22C115.437 115.22 115.61 115.281 115.722 115.402C115.843 115.523 115.922 115.705 115.96 115.948C116.044 116.527 116.254 116.933 116.59 117.166C116.935 117.39 117.472 117.502 118.2 117.502H122.792C123.66 117.502 124.257 117.339 124.584 117.012C124.91 116.685 125.074 116.088 125.074 115.22C125.074 114.343 124.91 113.741 124.584 113.414C124.257 113.087 123.66 112.924 122.792 112.924H118.256C117.042 112.924 116.137 112.635 115.54 112.056C114.952 111.468 114.658 110.567 114.658 109.354C114.658 108.113 114.952 107.203 115.54 106.624C116.128 106.036 117.033 105.742 118.256 105.742H122.652C124.761 105.742 125.932 106.675 126.166 108.542C126.203 108.785 126.152 108.976 126.012 109.116C125.881 109.247 125.694 109.312 125.452 109.312C125.218 109.312 125.041 109.251 124.92 109.13C124.808 109.009 124.728 108.831 124.682 108.598C124.616 108.075 124.425 107.716 124.108 107.52C123.8 107.315 123.314 107.212 122.652 107.212H118.256C117.444 107.212 116.884 107.361 116.576 107.66C116.277 107.959 116.128 108.523 116.128 109.354C116.128 110.147 116.282 110.698 116.59 111.006C116.898 111.305 117.453 111.454 118.256 111.454H122.792C124.08 111.454 125.027 111.762 125.634 112.378C126.24 112.985 126.544 113.932 126.544 115.22C126.544 116.499 126.24 117.446 125.634 118.062C125.027 118.669 124.08 118.972 122.792 118.972H118.2ZM135.618 119C133.873 119 132.594 118.599 131.782 117.796C130.97 116.984 130.564 115.71 130.564 113.974V110.81C130.564 109.046 130.97 107.763 131.782 106.96C132.594 106.148 133.873 105.751 135.618 105.77H137.914C139.66 105.77 140.934 106.176 141.736 106.988C142.548 107.791 142.954 109.065 142.954 110.81V113.946C142.954 115.691 142.548 116.97 141.736 117.782C140.934 118.594 139.66 119 137.914 119H135.618ZM132.034 113.974C132.034 115.29 132.296 116.214 132.818 116.746C133.35 117.269 134.284 117.53 135.618 117.53H137.914C139.249 117.53 140.178 117.269 140.7 116.746C141.223 116.214 141.484 115.281 141.484 113.946V110.81C141.484 109.475 141.223 108.547 140.7 108.024C140.178 107.501 139.249 107.24 137.914 107.24H135.618C134.722 107.231 134.013 107.338 133.49 107.562C132.968 107.786 132.594 108.159 132.37 108.682C132.146 109.205 132.034 109.914 132.034 110.81V113.974ZM148.555 119C148.061 119 147.813 118.753 147.813 118.258V106.498C147.813 106.013 148.061 105.77 148.555 105.77C149.041 105.77 149.283 106.013 149.283 106.498V107.842C150.17 106.461 151.775 105.77 154.099 105.77H154.883C156.629 105.77 157.903 106.176 158.705 106.988C159.517 107.791 159.923 109.065 159.923 110.81V118.258C159.923 118.753 159.681 119 159.195 119C158.701 119 158.453 118.753 158.453 118.258V110.81C158.453 109.475 158.187 108.547 157.655 108.024C157.133 107.501 156.209 107.24 154.883 107.24H154.099C152.653 107.24 151.514 107.469 150.683 107.926C149.853 108.383 149.386 109.097 149.283 110.068V118.258C149.283 118.753 149.041 119 148.555 119ZM168.29 119C166.834 119 165.766 118.664 165.084 117.992C164.412 117.311 164.076 116.242 164.076 114.786C164.076 113.33 164.417 112.261 165.098 111.58C165.78 110.899 166.844 110.558 168.29 110.558H174.66C174.642 109.326 174.362 108.467 173.82 107.982C173.288 107.487 172.378 107.24 171.09 107.24H169.466C168.281 107.24 167.413 107.366 166.862 107.618C166.312 107.87 165.971 108.299 165.84 108.906C165.775 109.139 165.686 109.312 165.574 109.424C165.472 109.527 165.304 109.578 165.07 109.578C164.828 109.578 164.636 109.513 164.496 109.382C164.366 109.242 164.319 109.055 164.356 108.822C164.478 107.758 164.958 106.983 165.798 106.498C166.648 106.013 167.87 105.77 169.466 105.77H171.09C172.836 105.77 174.11 106.176 174.912 106.988C175.724 107.791 176.13 109.065 176.13 110.81V118.258C176.13 118.753 175.888 119 175.402 119C174.908 119 174.66 118.753 174.66 118.258V116.872C173.764 118.291 172.164 119 169.858 119H168.29ZM168.29 117.53H169.858C170.764 117.53 171.557 117.432 172.238 117.236C172.929 117.031 173.484 116.704 173.904 116.256C174.324 115.808 174.576 115.211 174.66 114.464V112.028H168.29C167.254 112.028 166.536 112.229 166.134 112.63C165.742 113.022 165.546 113.741 165.546 114.786C165.546 115.822 165.742 116.541 166.134 116.942C166.536 117.334 167.254 117.53 168.29 117.53ZM184.968 119C183.643 119 182.667 118.692 182.042 118.076C181.426 117.46 181.118 116.494 181.118 115.178V100.31C181.118 99.8247 181.365 99.582 181.86 99.582C182.345 99.582 182.588 99.8247 182.588 100.31V115.178C182.588 116.083 182.756 116.704 183.092 117.04C183.428 117.367 184.049 117.53 184.954 117.53C185.458 117.53 185.71 117.773 185.71 118.258C185.719 118.753 185.472 119 184.968 119ZM200.144 119C198.818 119 197.843 118.692 197.218 118.076C196.602 117.46 196.294 116.494 196.294 115.178V100.31C196.294 99.8247 196.541 99.582 197.036 99.582C197.521 99.582 197.764 99.8247 197.764 100.31V115.178C197.764 116.083 197.932 116.704 198.268 117.04C198.604 117.367 199.224 117.53 200.13 117.53C200.634 117.53 200.886 117.773 200.886 118.258C200.895 118.753 200.648 119 200.144 119ZM204.862 103.222C204.218 103.222 203.896 102.891 203.896 102.228V101.598C203.896 100.954 204.218 100.632 204.862 100.632H205.492C206.118 100.632 206.43 100.954 206.43 101.598V102.228C206.43 102.891 206.118 103.222 205.492 103.222H204.862ZM205.184 119C204.69 119 204.442 118.753 204.442 118.258V106.498C204.442 106.013 204.69 105.77 205.184 105.77C205.67 105.77 205.912 106.013 205.912 106.498V118.258C205.912 118.753 205.67 119 205.184 119ZM211.883 119C211.389 119 211.141 118.753 211.141 118.258V100.31C211.141 99.8247 211.389 99.582 211.883 99.582C212.369 99.582 212.611 99.8247 212.611 100.31V107.716C213.031 107.072 213.629 106.582 214.403 106.246C215.187 105.91 216.195 105.742 217.427 105.742H218.491C220.237 105.742 221.511 106.148 222.313 106.96C223.125 107.772 223.531 109.051 223.531 110.796V113.946C223.531 115.691 223.125 116.97 222.313 117.782C221.511 118.594 220.237 119 218.491 119H217.427C216.195 119 215.187 118.837 214.403 118.51C213.629 118.174 213.031 117.679 212.611 117.026V118.258C212.611 118.753 212.369 119 211.883 119ZM217.427 117.53H218.491C219.826 117.53 220.755 117.269 221.277 116.746C221.8 116.214 222.061 115.281 222.061 113.946V110.796C222.061 109.461 221.795 108.533 221.263 108.01C220.741 107.478 219.817 107.212 218.491 107.212H217.427C215.971 107.212 214.805 107.441 213.927 107.898C213.05 108.355 212.611 109.051 212.611 109.984V114.814C212.63 115.719 213.078 116.401 213.955 116.858C214.833 117.306 215.99 117.53 217.427 117.53ZM229.137 119C228.643 119 228.395 118.753 228.395 118.258V106.498C228.395 106.013 228.643 105.77 229.137 105.77C229.623 105.77 229.865 106.013 229.865 106.498V108.654C230.351 107.721 231.051 107.007 231.965 106.512C232.889 106.017 233.981 105.77 235.241 105.77C235.736 105.77 235.983 106.013 235.983 106.498C235.983 106.993 235.736 107.24 235.241 107.24C233.58 107.24 232.292 107.618 231.377 108.374C230.463 109.121 229.959 110.189 229.865 111.58V118.258C229.865 118.753 229.623 119 229.137 119ZM242.036 119C240.58 119 239.512 118.664 238.83 117.992C238.158 117.311 237.822 116.242 237.822 114.786C237.822 113.33 238.163 112.261 238.844 111.58C239.526 110.899 240.59 110.558 242.036 110.558H248.406C248.388 109.326 248.108 108.467 247.566 107.982C247.034 107.487 246.124 107.24 244.836 107.24H243.212C242.027 107.24 241.159 107.366 240.608 107.618C240.058 107.87 239.717 108.299 239.586 108.906C239.521 109.139 239.432 109.312 239.32 109.424C239.218 109.527 239.05 109.578 238.816 109.578C238.574 109.578 238.382 109.513 238.242 109.382C238.112 109.242 238.065 109.055 238.102 108.822C238.224 107.758 238.704 106.983 239.544 106.498C240.394 106.013 241.616 105.77 243.212 105.77H244.836C246.582 105.77 247.856 106.176 248.658 106.988C249.47 107.791 249.876 109.065 249.876 110.81V118.258C249.876 118.753 249.634 119 249.148 119C248.654 119 248.406 118.753 248.406 118.258V116.872C247.51 118.291 245.91 119 243.604 119H242.036ZM242.036 117.53H243.604C244.51 117.53 245.303 117.432 245.984 117.236C246.675 117.031 247.23 116.704 247.65 116.256C248.07 115.808 248.322 115.211 248.406 114.464V112.028H242.036C241 112.028 240.282 112.229 239.88 112.63C239.488 113.022 239.292 113.741 239.292 114.786C239.292 115.822 239.488 116.541 239.88 116.942C240.282 117.334 241 117.53 242.036 117.53ZM255.606 119C255.111 119 254.864 118.753 254.864 118.258V106.498C254.864 106.013 255.111 105.77 255.606 105.77C256.091 105.77 256.334 106.013 256.334 106.498V108.654C256.819 107.721 257.519 107.007 258.434 106.512C259.358 106.017 260.45 105.77 261.71 105.77C262.205 105.77 262.452 106.013 262.452 106.498C262.452 106.993 262.205 107.24 261.71 107.24C260.049 107.24 258.761 107.618 257.846 108.374C256.931 109.121 256.427 110.189 256.334 111.58V118.258C256.334 118.753 256.091 119 255.606 119ZM268.751 124.6C267.528 124.6 266.623 124.306 266.035 123.718C265.456 123.13 265.167 122.215 265.167 120.974C265.167 120.489 265.409 120.246 265.895 120.246C266.389 120.246 266.637 120.489 266.637 120.974C266.637 121.814 266.786 122.383 267.085 122.682C267.383 122.981 267.939 123.13 268.751 123.13H273.595C274.416 123.13 274.976 122.981 275.275 122.682C275.573 122.383 275.723 121.814 275.723 120.974V117.124C275.191 117.824 274.523 118.314 273.721 118.594C272.918 118.874 271.98 119.014 270.907 119.014H270.123C268.405 119.014 267.15 118.617 266.357 117.824C265.563 117.031 265.167 115.785 265.167 114.086V106.484C265.167 105.989 265.409 105.742 265.895 105.742C266.389 105.742 266.637 105.989 266.637 106.484V114.086C266.637 115.383 266.889 116.284 267.393 116.788C267.906 117.292 268.816 117.544 270.123 117.544H270.907C272.54 117.544 273.749 117.259 274.533 116.69C275.326 116.111 275.723 115.243 275.723 114.086V106.484C275.723 105.989 275.965 105.742 276.451 105.742C276.945 105.742 277.193 105.989 277.193 106.484V120.974C277.193 122.215 276.899 123.13 276.311 123.718C275.732 124.306 274.827 124.6 273.595 124.6H268.751Z" fill="black"/>
</svg>
